<svg width="2292" height="427" viewBox="0 0 2292 427" fill="none" xmlns="http://www.w3.org/2000/svg">
<path d="M981.983 146.95C974.854 132.935 964.952 122.127 952.608 114.945C940.329 107.833 926.335 104.207 910.888 104.207C894.715 104.207 879.994 108.391 867.122 116.549C856.362 123.382 847.516 132.516 840.651 143.812C834.314 132.168 825.864 122.894 815.302 116.2C802.76 108.251 788.369 104.277 772.394 104.277C757.938 104.277 744.801 107.554 733.381 114.038C725.724 118.362 719.056 124.149 713.445 131.191V107.693H664.464V324.616H713.445V203.848C713.445 186.416 717.604 172.958 725.724 163.894C733.975 154.759 744.867 150.297 759.06 150.297C773.252 150.297 784.144 154.759 792.264 163.894C800.317 172.958 804.41 186.416 804.41 203.848V324.616H853.061V203.848C853.061 186.416 857.154 172.958 865.208 163.894C873.327 154.759 884.153 150.297 898.346 150.297C912.538 150.297 923.43 154.759 931.55 163.894C939.603 172.958 943.696 186.416 943.696 203.848V324.616H992.677V197.433C992.677 177.909 989.047 160.965 981.983 147.02V146.95Z" fill="white"/>
<path d="M1314.49 107.624V135.096C1308.68 127.635 1301.55 121.22 1293.3 115.991C1280.89 108.181 1266.43 104.207 1250.19 104.207C1232.37 104.207 1215.8 108.948 1201.01 118.222C1186.23 127.566 1174.41 140.744 1165.89 157.479C1157.38 174.144 1153.09 193.528 1153.09 215.074C1153.09 236.62 1157.38 256.143 1165.89 273.227C1174.41 290.38 1186.29 303.907 1201.01 313.46C1215.8 323.012 1232.37 327.893 1250.19 327.893C1266.43 327.893 1280.89 323.779 1293.16 315.691C1301.42 310.252 1308.55 303.489 1314.49 295.54V423.49H1363.8V107.624H1314.49ZM1258.77 281.943C1249.27 281.943 1240.16 279.293 1231.64 273.994C1223.13 268.764 1216.19 260.955 1210.98 250.914C1205.76 240.803 1203.06 228.74 1203.06 215.144C1203.06 201.547 1205.7 189.763 1210.91 180.001C1216.13 170.309 1222.99 162.848 1231.38 157.827C1239.76 152.807 1249 150.227 1258.71 150.227C1268.41 150.227 1277.59 152.807 1286.04 157.967C1294.42 163.127 1301.28 170.727 1306.5 180.559C1311.71 190.46 1314.42 202.314 1314.42 215.911C1314.42 229.507 1311.78 241.431 1306.5 251.472C1301.28 261.443 1294.42 269.113 1286.04 274.203C1277.65 279.363 1268.48 281.943 1258.71 281.943H1258.77Z" fill="white"/>
<path d="M1565.07 107.622V228.391C1565.07 245.823 1560.91 259.28 1552.79 268.345C1544.61 277.479 1533.65 281.942 1519.46 281.942C1505.27 281.942 1494.37 277.479 1486.25 268.345C1478.2 259.28 1474.11 245.823 1474.11 228.391V107.622H1425.52V234.806C1425.52 254.329 1429.15 271.273 1436.22 285.079C1443.35 298.955 1453.18 309.693 1465.39 316.875C1477.54 323.987 1491.27 327.613 1506.19 327.613C1521.11 327.613 1533.72 324.406 1545.14 318.06C1552.79 313.807 1559.46 308.089 1565.07 301.117V324.615H1614.05V107.622H1565.07Z" fill="white"/>
<path d="M1825.29 107.624V135.096C1819.48 127.635 1812.35 121.22 1804.1 115.991C1791.69 108.181 1777.23 104.207 1760.99 104.207C1743.17 104.207 1726.6 108.948 1711.81 118.222C1697.03 127.566 1685.21 140.744 1676.7 157.479C1668.18 174.144 1663.89 193.528 1663.89 215.074C1663.89 236.62 1668.18 256.143 1676.7 273.227C1685.21 290.38 1697.09 303.907 1711.81 313.46C1726.6 323.012 1743.17 327.893 1760.99 327.893C1777.23 327.893 1791.69 323.779 1803.97 315.691C1812.22 310.252 1819.35 303.489 1825.29 295.54V324.477H1874.6V107.624H1825.29ZM1769.57 281.943C1760.07 281.943 1750.96 279.293 1742.44 273.994C1733.93 268.764 1727 260.955 1721.78 250.914C1716.57 240.803 1713.86 228.74 1713.86 215.144C1713.86 201.547 1716.5 189.763 1721.72 180.001C1726.93 170.309 1733.8 162.848 1742.18 157.827C1750.56 152.807 1759.8 150.227 1769.51 150.227C1779.21 150.227 1788.39 152.807 1796.84 157.967C1805.22 163.127 1812.09 170.727 1817.3 180.559C1822.52 190.46 1825.22 202.314 1825.22 215.911C1825.22 229.507 1822.58 241.431 1817.3 251.472C1812.09 261.443 1805.22 269.113 1796.84 274.203C1788.45 279.363 1779.28 281.943 1769.51 281.943H1769.57Z" fill="white"/>
<path d="M2115.88 146.95C2108.75 132.935 2098.91 122.197 2086.7 114.945C2074.55 107.833 2060.82 104.207 2045.9 104.207C2030.99 104.207 2018.31 107.484 2006.89 113.969C1999.23 118.292 1992.57 124.079 1986.96 131.122V107.624H1937.97V324.546H1986.96V203.778C1986.96 186.346 1991.11 172.889 1999.23 163.824C2007.49 154.69 2018.38 150.227 2032.57 150.227C2046.76 150.227 2057.65 154.69 2065.71 163.824C2073.76 172.889 2077.85 186.346 2077.85 203.778V324.546H2126.51V197.363C2126.51 177.839 2122.88 160.895 2115.81 146.95H2115.88Z" fill="white"/>
<path d="M2291.93 151.413V107.624H2244.01V55.8167H2194.7V107.624H2171.46V151.413H2194.7V262.42C2194.7 284.035 2200.11 300.003 2210.74 309.904C2221.23 319.666 2236.35 324.617 2255.69 324.617H2292V280.061H2262.89C2255.76 280.061 2250.61 278.666 2247.97 276.086C2245.4 273.576 2244.08 268.974 2244.08 262.42V151.413H2292H2291.93Z" fill="white"/>
<path d="M1103.25 117.66H1054.27V324.542H1103.25V117.66Z" fill="white"/>
<path d="M1103.25 52.4678H1054.27V104.206H1103.25V52.4678Z" fill="white"/>
<path d="M127.845 425.787C127.845 425.787 420.082 445.102 451.042 329.563C469.591 260.393 424.505 184.53 395.723 134.953C365.094 82.1694 411.236 32.3141 432.162 31.6169C453.088 30.9196 266.141 15.2308 314.726 76.5215C363.311 137.812 381.003 204.82 319.479 301.045C246.932 414.352 127.845 425.787 127.845 425.787Z" fill="#00008C"/>
<path d="M432.097 31.6866C425.099 31.8958 415.33 37.6134 406.484 47.0964C382.191 70.3854 368.923 118.079 358.295 198.824C362.058 152.525 343.97 113.477 314.726 76.5215C266.141 15.2309 453.089 30.9196 432.097 31.6169V31.6866Z" fill="url(#paint0_linear_876_1709)"/>
<path d="M327.541 1.21263C327.541 1.21263 35.3705 -18.1019 4.34474 97.4368C-14.2047 166.607 30.8817 242.47 59.663 292.047C90.2927 344.831 44.1501 394.686 23.2243 395.383C2.29836 396.08 189.245 411.769 140.66 350.479C92.0751 289.188 74.3838 222.18 135.907 125.955C208.455 12.648 327.541 1.21263 327.541 1.21263Z" fill="#00008C"/>
<path d="M23.349 395.386C30.3463 395.177 40.1161 389.459 48.9617 379.976C73.2542 356.687 86.5227 308.993 97.1507 228.249C93.388 274.548 111.475 313.595 140.719 350.551C189.304 411.842 2.35705 396.153 23.349 395.456V395.386Z" fill="url(#paint1_linear_876_1709)"/>
<path d="M127.845 425.787C127.845 425.787 420.082 445.102 451.042 329.563C469.591 260.393 424.505 184.53 395.723 134.953C365.094 82.1694 411.236 32.3141 432.162 31.6169C453.088 30.9196 266.141 15.2308 314.726 76.5215C363.311 137.812 381.003 204.82 319.479 301.045C246.932 414.352 127.845 425.787 127.845 425.787Z" fill="white"/>
<path d="M432.097 31.6866C425.099 31.9655 415.596 37.7473 406.552 47.1606C382.259 70.4496 368.859 118.143 358.297 198.888C362.06 152.589 344.104 113.402 314.729 76.5856C265.418 14.8766 454.145 30.9196 432.097 31.6866Z" fill="url(#paint2_linear_876_1709)"/>
<path d="M327.541 1.21263C327.541 1.21263 35.3705 -18.1019 4.34474 97.4368C-14.2047 166.607 30.8817 242.47 59.663 292.047C90.2927 344.831 44.1501 394.686 23.2243 395.383C2.29836 396.08 189.245 411.769 140.66 350.479C92.0751 289.188 74.3838 222.18 135.907 125.955C208.455 12.648 327.541 1.21263 327.541 1.21263Z" fill="white"/>
<path d="M23.349 395.386C30.3463 395.177 40.1161 389.459 48.9617 379.976C73.2542 356.687 86.5227 308.993 97.1507 228.249C93.388 274.548 111.475 313.595 140.719 350.551C189.304 411.842 2.35705 396.153 23.349 395.456V395.386Z" fill="white"/>
<path d="M23.3508 395.314C30.3481 395.035 39.8538 389.247 48.8975 379.834C73.1901 356.545 86.5905 308.851 97.1525 228.107C93.3898 274.406 111.345 313.593 140.721 350.409C190.032 412.118 1.30268 396.081 23.3508 395.314Z" fill="url(#paint3_linear_876_1709)"/>
<defs>
<linearGradient id="paint0_linear_876_1709" x1="-0.498028" y1="213.585" x2="2291.98" y2="213.585" gradientUnits="userSpaceOnUse">
<stop stop-color="#5E6BFF"/>
<stop offset="0.02" stop-color="#5A71FF"/>
<stop offset="0.18" stop-color="#3E9CFF"/>
<stop offset="0.34" stop-color="#28BFFF"/>
<stop offset="0.5" stop-color="#16DBFF"/>
<stop offset="0.67" stop-color="#09EFFF"/>
<stop offset="0.83" stop-color="#02FBFF"/>
<stop offset="1" stop-color="#00FFFF"/>
</linearGradient>
<linearGradient id="paint1_linear_876_1709" x1="2292.5" y1="213.415" x2="0.0232292" y2="213.415" gradientUnits="userSpaceOnUse">
<stop stop-color="#5E6BFF"/>
<stop offset="0.02" stop-color="#5A71FF"/>
<stop offset="0.18" stop-color="#3E9CFF"/>
<stop offset="0.34" stop-color="#28BFFF"/>
<stop offset="0.5" stop-color="#16DBFF"/>
<stop offset="0.67" stop-color="#09EFFF"/>
<stop offset="0.83" stop-color="#02FBFF"/>
<stop offset="1" stop-color="#00FFFF"/>
</linearGradient>
<linearGradient id="paint2_linear_876_1709" x1="0.00294532" y1="213.398" x2="2291.68" y2="213.398" gradientUnits="userSpaceOnUse">
<stop stop-color="#5E6BFF"/>
<stop offset="0.02" stop-color="#5A71FF"/>
<stop offset="0.18" stop-color="#3E9CFF"/>
<stop offset="0.34" stop-color="#28BFFF"/>
<stop offset="0.5" stop-color="#16DBFF"/>
<stop offset="0.67" stop-color="#09EFFF"/>
<stop offset="0.83" stop-color="#02FBFF"/>
<stop offset="1" stop-color="#00FFFF"/>
</linearGradient>
<linearGradient id="paint3_linear_876_1709" x1="21.5036" y1="312.967" x2="148.973" y2="312.967" gradientUnits="userSpaceOnUse">
<stop stop-color="#5E6BFF"/>
<stop offset="0.02" stop-color="#5A71FF"/>
<stop offset="0.18" stop-color="#3E9CFF"/>
<stop offset="0.34" stop-color="#28BFFF"/>
<stop offset="0.5" stop-color="#16DBFF"/>
<stop offset="0.67" stop-color="#09EFFF"/>
<stop offset="0.83" stop-color="#02FBFF"/>
<stop offset="1" stop-color="#00FFFF"/>
</linearGradient>
</defs>
</svg>
