<svg width="125" height="22" viewBox="0 0 125 22" fill="none" xmlns="http://www.w3.org/2000/svg">
<path d="M53.4453 7.57033C53.0572 6.84825 52.5183 6.29142 51.8465 5.9214C51.1782 5.55497 50.4166 5.36816 49.5759 5.36816C48.6956 5.36816 47.8944 5.58371 47.1939 6.00403C46.6082 6.35608 46.1268 6.82669 45.7532 7.40867C45.4082 6.80873 44.9484 6.33094 44.3735 5.98606C43.6909 5.57653 42.9077 5.37176 42.0382 5.37176C41.2514 5.37176 40.5365 5.5406 39.9149 5.8747C39.4981 6.09743 39.1353 6.3956 38.8299 6.75844V5.54779H36.1641V16.7239H38.8299V10.5018C38.8299 9.60365 39.0562 8.91031 39.4981 8.44329C39.9472 7.97268 40.54 7.74277 41.3125 7.74277C42.0849 7.74277 42.6777 7.97268 43.1197 8.44329C43.558 8.91031 43.7807 9.60365 43.7807 10.5018V16.7239H46.4286V10.5018C46.4286 9.60365 46.6513 8.91031 47.0897 8.44329C47.5316 7.97268 48.1208 7.74277 48.8932 7.74277C49.6657 7.74277 50.2585 7.97268 50.7004 8.44329C51.1387 8.91031 51.3615 9.60365 51.3615 10.5018V16.7239H54.0273V10.1713C54.0273 9.16537 53.8297 8.29241 53.4453 7.57392V7.57033Z" fill="#00008C"/>
<path d="M71.5421 5.54419V6.95961C71.226 6.57522 70.8379 6.24472 70.3888 5.97529C69.7134 5.57293 68.9266 5.36816 68.0428 5.36816C67.0727 5.36816 66.1709 5.61245 65.3662 6.09024C64.5614 6.57163 63.9183 7.2506 63.4548 8.11279C62.9913 8.97138 62.7578 9.97008 62.7578 11.0801C62.7578 12.1902 62.9913 13.1961 63.4548 14.0762C63.9183 14.96 64.565 15.6569 65.3662 16.1491C66.1709 16.6412 67.0727 16.8927 68.0428 16.8927C68.9266 16.8927 69.7134 16.6808 70.3817 16.264C70.8308 15.9838 71.2188 15.6354 71.5421 15.2258V21.8179H74.2259V5.54419H71.5421ZM68.5098 14.5253C67.9925 14.5253 67.4967 14.3888 67.0332 14.1158C66.5697 13.8463 66.1925 13.444 65.9087 12.9267C65.6248 12.4058 65.4775 11.7843 65.4775 11.0837C65.4775 10.3832 65.6212 9.77609 65.9051 9.27314C66.1889 8.7738 66.5626 8.3894 67.0188 8.13075C67.4751 7.87209 67.9781 7.73917 68.5062 7.73917C69.0344 7.73917 69.5338 7.87209 69.9936 8.13793C70.4499 8.40377 70.8236 8.79535 71.1074 9.30188C71.3912 9.81201 71.5385 10.4227 71.5385 11.1233C71.5385 11.8238 71.3948 12.4381 71.1074 12.9554C70.8236 13.4691 70.4499 13.8643 69.9936 14.1265C69.5374 14.3924 69.038 14.5253 68.5062 14.5253H68.5098Z" fill="#00008C"/>
<path d="M85.1803 5.54492V11.767C85.1803 12.6651 84.954 13.3585 84.5121 13.8255C84.0666 14.2961 83.4702 14.526 82.6977 14.526C81.9253 14.526 81.3325 14.2961 80.8905 13.8255C80.4522 13.3585 80.2295 12.6651 80.2295 11.767V5.54492H77.5852V12.0975C77.5852 13.1034 77.7828 13.9764 78.1672 14.6877C78.5553 15.4026 79.0906 15.9558 79.7552 16.3258C80.4163 16.6923 81.1636 16.8791 81.9756 16.8791C82.7875 16.8791 83.4738 16.7138 84.0953 16.3869C84.5121 16.1678 84.8749 15.8732 85.1803 15.5139V16.7246H87.8461V5.54492H85.1803Z" fill="#00008C"/>
<path d="M99.3429 5.54419V6.95961C99.0267 6.57522 98.6387 6.24472 98.1896 5.97529C97.5142 5.57293 96.7274 5.36816 95.8435 5.36816C94.8735 5.36816 93.9717 5.61245 93.1669 6.09024C92.3622 6.57163 91.7191 7.2506 91.2556 8.11279C90.7921 8.97138 90.5586 9.97008 90.5586 11.0801C90.5586 12.1902 90.7921 13.1961 91.2556 14.0762C91.7191 14.96 92.3658 15.6569 93.1669 16.1491C93.9717 16.6412 94.8735 16.8927 95.8435 16.8927C96.7274 16.8927 97.5142 16.6808 98.1824 16.264C98.6315 15.9838 99.0196 15.6354 99.3429 15.2258V16.7167H102.027V5.54419H99.3429ZM96.3106 14.5253C95.7933 14.5253 95.2974 14.3888 94.834 14.1158C94.3705 13.8463 93.9933 13.444 93.7094 12.9267C93.4256 12.4058 93.2783 11.7843 93.2783 11.0837C93.2783 10.3832 93.422 9.77609 93.7059 9.27314C93.9897 8.7738 94.3633 8.3894 94.8196 8.13075C95.2759 7.87209 95.7789 7.73917 96.307 7.73917C96.8352 7.73917 97.3346 7.87209 97.7944 8.13793C98.2507 8.40377 98.6243 8.79535 98.9082 9.30188C99.192 9.81201 99.3393 10.4227 99.3393 11.1233C99.3393 11.8238 99.1956 12.4381 98.9082 12.9554C98.6243 13.4691 98.2507 13.8643 97.7944 14.1265C97.3381 14.3924 96.8387 14.5253 96.307 14.5253H96.3106Z" fill="#00008C"/>
<path d="M115.158 7.57033C114.77 6.84825 114.235 6.29501 113.57 5.9214C112.909 5.55497 112.162 5.36816 111.35 5.36816C110.538 5.36816 109.848 5.53701 109.226 5.87111C108.81 6.09384 108.447 6.39201 108.141 6.75485V5.54419H105.476V16.7203H108.141V10.4982C108.141 9.60006 108.368 8.90672 108.81 8.4397C109.259 7.96909 109.852 7.73917 110.624 7.73917C111.396 7.73917 111.989 7.96909 112.428 8.4397C112.866 8.90672 113.089 9.60006 113.089 10.4982V16.7203H115.737V10.1677C115.737 9.16178 115.539 8.28882 115.154 7.57033H115.158Z" fill="#00008C"/>
<path d="M124.74 7.80023V5.54418H122.132V2.875H119.448V5.54418H118.183V7.80023H119.448V13.5194C119.448 14.633 119.743 15.4557 120.321 15.9658C120.892 16.4688 121.715 16.7238 122.768 16.7238H124.744V14.4283H123.159C122.771 14.4283 122.491 14.3564 122.347 14.2235C122.207 14.0942 122.135 13.8571 122.135 13.5194V7.80023H124.744H124.74Z" fill="#00008C"/>
<path d="M60.0452 6.06152H57.3794V16.7203H60.0452V6.06152Z" fill="#00008C"/>
<path d="M60.0452 2.70312H57.3794V5.36871H60.0452V2.70312Z" fill="#00008C"/>
<path d="M6.9585 21.9372C6.9585 21.9372 22.8637 22.9323 24.5487 16.9797C25.5582 13.416 23.1044 9.50738 21.5379 6.95316C19.8709 4.23368 22.3822 1.66509 23.5211 1.62916C24.66 1.59324 14.4853 0.78494 17.1296 3.94269C19.7739 7.10045 20.7368 10.5528 17.3883 15.5103C13.4398 21.3481 6.9585 21.9372 6.9585 21.9372Z" fill="#00008C"/>
<path d="M23.5176 1.63276C23.1367 1.64353 22.605 1.93811 22.1236 2.42668C20.8014 3.62656 20.0793 6.08379 19.5008 10.2438C19.7056 7.85845 18.7212 5.84669 17.1296 3.94269C14.4853 0.78494 24.6601 1.59324 23.5176 1.62916V1.63276Z" fill="url(#paint0_linear_301_1517)"/>
<path d="M17.8266 0.0624757C17.8266 0.0624757 1.92507 -0.932629 0.236466 5.02004C-0.773101 8.58374 1.68076 12.4923 3.2472 15.0465C4.91425 17.766 2.4029 20.3346 1.264 20.3705C0.12509 20.4065 10.2998 21.2147 7.65552 18.057C5.01125 14.8992 4.04839 11.4469 7.39685 6.48935C11.3453 0.651635 17.8266 0.0624757 17.8266 0.0624757Z" fill="#00008C"/>
<path d="M1.27129 20.3708C1.65212 20.3601 2.18385 20.0655 2.66528 19.5769C3.98742 18.377 4.70956 15.9198 5.288 11.7598C5.08321 14.1451 6.06763 16.1569 7.65922 18.0609C10.3035 21.2187 0.128786 20.4104 1.27129 20.3744V20.3708Z" fill="#00FFFF"/>
<path d="M6.9585 21.9372C6.9585 21.9372 22.8637 22.9323 24.5487 16.9797C25.5582 13.416 23.1044 9.50738 21.5379 6.95316C19.8709 4.23368 22.3822 1.66509 23.5211 1.62916C24.66 1.59324 14.4853 0.78494 17.1296 3.94269C19.7739 7.10045 20.7368 10.5528 17.3883 15.5103C13.4398 21.3481 6.9585 21.9372 6.9585 21.9372Z" fill="#00008C"/>
<path d="M23.5175 1.63297C23.1366 1.64734 22.6193 1.94551 22.1271 2.43049C20.8049 3.63037 20.0756 6.0876 19.5007 10.2476C19.7055 7.86226 18.7283 5.84331 17.1295 3.9465C14.4457 0.767194 24.7174 1.59345 23.5175 1.63297Z" fill="url(#paint1_linear_301_1517)"/>
<path d="M17.8266 0.0624757C17.8266 0.0624757 1.92507 -0.932629 0.236466 5.02004C-0.773101 8.58374 1.68076 12.4923 3.2472 15.0465C4.91425 17.766 2.4029 20.3346 1.264 20.3705C0.12509 20.4065 10.2998 21.2147 7.65552 18.057C5.01125 14.8992 4.04839 11.4469 7.39685 6.48935C11.3453 0.651635 17.8266 0.0624757 17.8266 0.0624757Z" fill="#00008C"/>
<path d="M1.27129 20.3708C1.65212 20.3601 2.18385 20.0655 2.66528 19.5769C3.98742 18.377 4.70956 15.9198 5.288 11.7598C5.08321 14.1451 6.06763 16.1569 7.65922 18.0609C10.3035 21.2187 0.128786 20.4104 1.27129 20.3744V20.3708Z" fill="#00FFFF"/>
<path d="M1.27106 20.3676C1.6519 20.3532 2.16925 20.0551 2.66146 19.5701C3.9836 18.3702 4.71293 15.913 5.28777 11.7529C5.08299 14.1383 6.06022 16.1573 7.659 18.0541C10.3428 21.2334 0.0710785 20.4071 1.27106 20.3676Z" fill="url(#paint2_linear_301_1517)"/>
<defs>
<linearGradient id="paint0_linear_301_1517" x1="16.6877" y1="5.87902" x2="23.6074" y2="5.87902" gradientUnits="userSpaceOnUse">
<stop stop-color="#5E6BFF"/>
<stop offset="0.02" stop-color="#5A71FF"/>
<stop offset="0.18" stop-color="#3E9CFF"/>
<stop offset="0.34" stop-color="#28BFFF"/>
<stop offset="0.5" stop-color="#16DBFF"/>
<stop offset="0.67" stop-color="#09EFFF"/>
<stop offset="0.83" stop-color="#02FBFF"/>
<stop offset="1" stop-color="#00FFFF"/>
</linearGradient>
<linearGradient id="paint1_linear_301_1517" x1="16.6804" y1="5.87564" x2="23.6145" y2="5.87564" gradientUnits="userSpaceOnUse">
<stop stop-color="#5E6BFF"/>
<stop offset="0.02" stop-color="#5A71FF"/>
<stop offset="0.18" stop-color="#3E9CFF"/>
<stop offset="0.34" stop-color="#28BFFF"/>
<stop offset="0.5" stop-color="#16DBFF"/>
<stop offset="0.67" stop-color="#09EFFF"/>
<stop offset="0.83" stop-color="#02FBFF"/>
<stop offset="1" stop-color="#00FFFF"/>
</linearGradient>
<linearGradient id="paint2_linear_301_1517" x1="8.10809" y1="16.1213" x2="1.17046" y2="16.1213" gradientUnits="userSpaceOnUse">
<stop stop-color="#5E6BFF"/>
<stop offset="0.02" stop-color="#5A71FF"/>
<stop offset="0.18" stop-color="#3E9CFF"/>
<stop offset="0.34" stop-color="#28BFFF"/>
<stop offset="0.5" stop-color="#16DBFF"/>
<stop offset="0.67" stop-color="#09EFFF"/>
<stop offset="0.83" stop-color="#02FBFF"/>
<stop offset="1" stop-color="#00FFFF"/>
</linearGradient>
</defs>
</svg>
