<?xml version="1.0" encoding="utf-8"?>
<!-- Generator: Adobe Illustrator 26.0.2, SVG Export Plug-In . SVG Version: 6.00 Build 0)  -->
<svg version="1.1" id="Layer_1" xmlns="http://www.w3.org/2000/svg" xmlns:xlink="http://www.w3.org/1999/xlink" x="0px" y="0px"
	 viewBox="0 0 512 67.3" style="enable-background:new 0 0 512 67.3;" xml:space="preserve">
<style type="text/css">
	.st0{fill:#131722;}
	.st1{fill-rule:evenodd;clip-rule:evenodd;fill:#131722;}
</style>
<g>
	<path class="st0" d="M127.5,52.2h10.1V12.7h13.2V3.2h-36.3v9.5h13V52.2z"/>
	<path class="st0" d="M150.7,52.2h9.5V35.7c0-5.7,3-9.2,7.5-9.2c1.6,0,2.8,0.3,4.3,0.8v-9.6c-1.2-0.3-2.1-0.4-3.2-0.4
		c-3.9,0-7.4,2.6-8.6,5.9v-5.5h-9.5V52.2z"/>
	<path class="st0" d="M190.1,52.9c4.8,0,8.4-2.4,9.9-4.6v3.9h9.5V17.7H200v3.9c-1.6-2.2-5.2-4.6-9.9-4.6c-9.2,0-16.2,8.3-16.2,18
		C173.9,44.6,180.9,52.9,190.1,52.9z M192.1,44.3c-5.2,0-8.7-3.9-8.7-9.4c0-5.5,3.5-9.4,8.7-9.4s8.7,3.9,8.7,9.4
		C200.8,40.4,197.3,44.3,192.1,44.3z"/>
	<path class="st0" d="M232,52.9c4.8,0,8.4-2.4,9.9-4.6v3.9h9.5V0.4h-9.5v21.1c-1.6-2.2-5.2-4.6-9.9-4.6c-9.2,0-16.2,8.3-16.2,18
		C215.8,44.6,222.8,52.9,232,52.9z M234,44.3c-5.2,0-8.7-3.9-8.7-9.4c0-5.5,3.5-9.4,8.7-9.4s8.7,3.9,8.7,9.4
		C242.7,40.4,239.2,44.3,234,44.3z"/>
	<path class="st0" d="M264.6,12c3.4,0,6.1-2.7,6.1-6s-2.7-6-6.1-6c-3.2,0-6,2.7-6,6S261.3,12,264.6,12z M259.9,52.2h9.5V17.7h-9.5
		V52.2z"/>
	<path class="st0" d="M277.7,52.2h9.5V35.3c0-6.6,3.2-9.8,7.7-9.8c3.9,0,6.1,3,6.1,8v18.6h9.5V32c0-9-5-15-13.3-15
		c-4.5,0-8,1.9-9.9,4.7v-3.9h-9.5V52.2z"/>
	<path class="st0" d="M334.4,43.2c-4.8,0-8.8-3.6-8.8-8.8c0-5.3,4-8.8,8.8-8.8c4.8,0,8.8,3.5,8.8,8.8
		C343.2,39.6,339.2,43.2,334.4,43.2z M333.3,67.3c10.6,0,18.6-5.4,18.6-17.8V17.7h-9.5v3.9c-1.9-2.7-5.6-4.6-10-4.6
		c-9,0-16.3,7.7-16.3,17.5c0,9.7,7.2,17.4,16.3,17.4c4.4,0,8.1-2,10-4.6v2.3c0,5.5-3.7,9.5-9.2,9.5c-3.9,0-7.7-1.3-10.8-4.3l-5.2,7
		C321.2,65.6,327.3,67.3,333.3,67.3z"/>
	<path class="st0" d="M371.9,52.2h8.9l20.3-49h-11l-13.7,34l-13.9-34h-10.8L371.9,52.2z"/>
	<path class="st0" d="M409.7,12c3.4,0,6.1-2.7,6.1-6s-2.7-6-6.1-6c-3.2,0-6,2.7-6,6S406.5,12,409.7,12z M405,52.2h9.5V17.7H405V52.2
		z"/>
	<path class="st0" d="M439,52.9c7.2,0,12.8-3,16-7.7l-7-5.2c-1.6,2.4-4.6,4.3-8.9,4.3c-4.6,0-8.6-2.6-9.2-7.2h25.8
		c0.2-1.4,0.1-2.4,0.1-3.2c0-11.2-7.9-17-17-17c-10.5,0-18.1,7.8-18.1,18C420.7,45.8,428.7,52.9,439,52.9z M430.2,30.7
		c0.9-4.2,4.8-6,8.4-6c3.5,0,7,1.9,7.8,6H430.2z"/>
	<path class="st0" d="M491.2,52.2h9.4L512,17.7h-10.1l-6.5,22.1l-7-22.1h-7.2l-7,22.1l-6.6-22.1h-10.1l11.5,34.5h9.4l6.4-19.6
		L491.2,52.2z"/>
	<path class="st1" d="M38.1,52.2H20V21.3H0V3.2h38.1V52.2z M65.4,14.1c0,6-4.9,10.9-10.9,10.9s-10.9-4.9-10.9-10.9
		c0-6,4.9-10.9,10.9-10.9S65.4,8,65.4,14.1z M54.5,52.2l20.9-49h21.8l-20.9,49H54.5z"/>
</g>
</svg>
